# xmcd CD database file
#
# Track frame offsets:
#	150
#	28822
#	49742
#	93286
#	109831
#	132694
#	150574
#	163338
#	181409
#	209581
#	238026
#	251721
#	265781
#	292541
#
# Disc length: 4229 seconds
#
# Revision: 1
# Processed by: cddbd v1.5.2PL0 Copyright (c) Steve Scherf et al.
# Submitted via: CDex 1.70beta2
#
DISCID=c910830e
DTITLE=Various Artist - Jazz! 100 CD3 (Jazz Piano)
DYEAR=1900
DGENRE=Jazz
TTITLE0=Softly As In A Morning Sunrise
TTITLE1=Waltz for Debby
TTITLE2=No Problem
TTITLE3=There'll Never Be Another You
TTITLE4=But Not For Me
TTITLE5=You'd Be So Nice To Come Home
TTITLE6=You And The Night And The Music
TTITLE7=Jor-Du
TTITLE8=All The Things You Are
TTITLE9=A Night In Tunisia
TTITLE10=Hackensack
TTITLE11=Have You Met Miss Jones?
TTITLE12=Dear Old Stockholm
TTITLE13=Misty
EXTD=
EXTT0=
EXTT1=
EXTT2=
EXTT3=
EXTT4=
EXTT5=
EXTT6=
EXTT7=
EXTT8=
EXTT9=
EXTT10=
EXTT11=
EXTT12=
EXTT13=
PLAYORDER=
